<?xml version="1.0" encoding="UTF-8" standalone="no"?>
<svg
   viewBox="0 0 64 64"
   version="1.1"
   id="svg334"
   sodipodi:docname="Extension.svg"
   inkscape:version="1.3 (0e150ed6c4, 2023-07-21)"
   xml:space="preserve"
   inkscape:export-filename="Extension.png"
   inkscape:export-xdpi="1500"
   inkscape:export-ydpi="1500"
   xmlns:inkscape="http://www.inkscape.org/namespaces/inkscape"
   xmlns:sodipodi="http://sodipodi.sourceforge.net/DTD/sodipodi-0.dtd"
   xmlns:xlink="http://www.w3.org/1999/xlink"
   xmlns="http://www.w3.org/2000/svg"
   xmlns:svg="http://www.w3.org/2000/svg"><defs
     id="defs338"><radialGradient
       inkscape:collect="always"
       xlink:href="#linearGradient1200-3"
       id="radialGradient1"
       cx="21.456154"
       cy="78.368561"
       fx="21.456154"
       fy="78.368561"
       r="32"
       gradientUnits="userSpaceOnUse"
       gradientTransform="matrix(0,-1.732455,1.6108918,1.1567074e-6,-94.133103,92.61029)" /><linearGradient
       inkscape:collect="always"
       id="linearGradient1200-3"><stop
         style="stop-color:#ca1428;stop-opacity:1;"
         offset="0"
         id="stop1198-6" /><stop
         style="stop-color:#9b1526;stop-opacity:1;"
         offset="1"
         id="stop1196-7" /></linearGradient></defs><sodipodi:namedview
     id="namedview336"
     pagecolor="#ffffff"
     bordercolor="#666666"
     borderopacity="1.0"
     inkscape:showpageshadow="2"
     inkscape:pageopacity="0.0"
     inkscape:pagecheckerboard="0"
     inkscape:deskcolor="#d1d1d1"
     showgrid="false"
     showguides="true"
     inkscape:zoom="5.2149126"
     inkscape:cx="29.434817"
     inkscape:cy="39.022706"
     inkscape:window-width="1440"
     inkscape:window-height="831"
     inkscape:window-x="0"
     inkscape:window-y="0"
     inkscape:window-maximized="1"
     inkscape:current-layer="svg334" /><path
     fill="#FF8700"
     d="M 0,0 H 64 V 64 H 0 Z"
     id="path330-5"
     style="fill:url(#radialGradient1);fill-opacity:1" /><path
     id="path432"
     style="color:#000000;fill:#ffffff;stroke-linecap:round;stroke-linejoin:round;-inkscape-stroke:none"
     d="m 22.025391,16.806071 c -3.4153,-0.01337 -6.768135,0.834518 -9.841797,2.513672 a 3.0003,3.0003 0 0 0 -1.5625,2.632812 v 22.058594 a 3.0003,3.0003 0 0 0 4.121094,2.783203 c 6.001834,-2.415117 10.284429,-2.358139 15.630859,1.09375 a 3,3 0 0 0 0.291015,0.128907 3,3 0 0 0 0.41211,0.18164 3,3 0 0 0 0.460937,0.09961 3,3 0 0 0 0.462891,0.04687 3,3 0 0 0 0.462891,-0.04687 3,3 0 0 0 0.460937,-0.09961 3,3 0 0 0 0.41211,-0.18164 3,3 0 0 0 0.291015,-0.128907 c 5.34643,-3.451889 9.629025,-3.508867 15.630859,-1.09375 a 3.0003,3.0003 0 0 0 4.121094,-2.783203 V 21.952555 a 3.0003,3.0003 0 0 0 -1.5625,-2.632812 c -3.278572,-1.791097 -6.87451,-2.636971 -10.52539,-2.5 -3.110918,0.116713 -6.261017,0.951415 -9.291016,2.521484 -3.029999,-1.570069 -6.180098,-2.404771 -9.291016,-2.521484 -0.22818,-0.0086 -0.455907,-0.01278 -0.683593,-0.01367 z M 22.46875,22.78654 C 24.89753,22.83913 27.401473,23.574665 30,25.085368 V 40.94279 C 25.642279,39.135316 21.144383,38.956579 16.621094,40.018962 V 23.962321 c 1.909079,-0.806847 3.853403,-1.218966 5.847656,-1.175781 z m 19.0625,0 c 1.994253,-0.04318 3.938577,0.368934 5.847656,1.175781 V 40.018962 C 42.855617,38.956579 38.357721,39.135316 34,40.94279 V 25.085368 c 2.598527,-1.510703 5.10247,-2.246234 7.53125,-2.298828 z" /></svg>
